<?xml version="1.0" encoding="UTF-8" standalone="no"?>
<svg xmlns="http://www.w3.org/2000/svg" width="512" height="512" viewBox="0 0 512 512" fill="none">
  <rect width="512" height="512" rx="128" fill="#0061A4"/>
  <path d="M128 160C128 149.071 136.954 140 148 140H364C375.046 140 384 149.071 384 160V352C384 362.929 375.046 372 364 372H148C136.954 372 128 362.929 128 352V160Z" fill="white"/>
  <path d="M160 192C160 181.071 168.954 172 180 172H246C257.046 172 266 181.071 266 192V320C266 330.929 257.046 340 246 340H180C168.954 340 160 330.929 160 320V192Z" fill="#0061A4"/>
  <path d="M246 192C246 181.071 254.954 172 266 172H332C343.046 172 352 181.071 352 192V320C352 330.929 343.046 340 332 340H266C254.954 340 246 330.929 246 320V192Z" fill="#0061A4"/>
  <path d="M180 204C180 199.029 184.029 195 189 195H237C241.971 195 246 199.029 246 204V308C246 312.971 241.971 317 237 317H189C184.029 317 180 312.971 180 308V204Z" fill="white"/>
  <path d="M266 204C266 199.029 270.029 195 275 195H323C327.971 195 332 199.029 332 204V308C332 312.971 327.971 317 323 317H275C270.029 317 266 312.971 266 308V204Z" fill="white"/>
</svg>